<svg version="1.1" viewBox="0.0 0.0 793.0 580.0" fill="none" stroke="none" stroke-linecap="square" stroke-miterlimit="10" xmlns:xlink="http://www.w3.org/1999/xlink" xmlns="http://www.w3.org/2000/svg"><clipPath id="p.0"><path d="m0 0l793.0 0l0 580.0l-793.0 0l0 -580.0z" clip-rule="nonzero"/></clipPath><g clip-path="url(#p.0)"><path fill="#000000" fill-opacity="0.0" d="m0 0l793.0 0l0 580.0l-793.0 0z" fill-rule="evenodd"/><path fill="#ff0000" d="m119.86943 64.85572l49.453552 -49.819324l227.17662 225.50871l227.17667 -225.50871l49.453552 49.819324l-226.80954 225.14429l226.80954 225.14429l-49.453552 49.819336l-227.17667 -225.50873l-227.17662 225.50873l-49.453552 -49.819336l226.80952 -225.14429z" fill-rule="evenodd"/><path stroke="#000000" stroke-width="1.0" stroke-linejoin="round" stroke-linecap="butt" d="m119.86943 64.85572l49.453552 -49.819324l227.17662 225.50871l227.17667 -225.50871l49.453552 49.819324l-226.80954 225.14429l226.80954 225.14429l-49.453552 49.819336l-227.17667 -225.50873l-227.17662 225.50873l-49.453552 -49.819336l226.80952 -225.14429z" fill-rule="evenodd"/></g></svg>